<?xml version="1.0" encoding="utf-8"?>
<!-- Generator: Adobe Illustrator 19.0.0, SVG Export Plug-In . SVG Version: 6.00 Build 0)  -->
<svg version="1.1" id="Layer_1" xmlns="http://www.w3.org/2000/svg" xmlns:xlink="http://www.w3.org/1999/xlink" x="0px" y="0px"
	 viewBox="0 0 512 512" style="enable-background:new 0 0 512 512;" xml:space="preserve">
<style type="text/css">
	.st0{fill:#242424;}
</style>
<path id="XMLID_5_" class="st0" d="M256,44.3c-114.9,0-208,93.1-208,208c0,46.8,15.4,89.9,41.5,124.7L48,466.1l90.4-42.3
	c33.5,23,74,36.4,117.6,36.4c114.9,0,208-93.1,208-208S370.9,44.3,256,44.3z M273.7,364.7h-35.4v-35.4h35.4V364.7z M324.9,230.4
	c-5,7.9-15.7,18.7-32.1,32.3c-8.5,7.1-13.7,12.7-15.8,17c-2.1,4.3-3,11.9-2.8,23h-36.4c-0.1-5.2-0.1-8.4-0.1-9.6
	c0-11.8,1.9-21.5,5.9-29.1c3.9-7.6,11.7-16.2,23.4-25.7c11.7-9.5,18.7-15.8,21-18.7c3.5-4.7,5.3-9.8,5.3-15.4
	c0-7.8-3.1-14.5-9.4-20.1c-6.2-5.6-14.6-8.4-25.2-8.4c-10.2,0-18.7,2.9-25.6,8.7c-6.9,5.8-11.6,14.7-14.1,26.6l-36.8-4.6
	c1-17,8.3-31.5,21.8-43.4c13.5-11.9,31.1-17.8,53-17.8c23,0,41.4,6,55,18.1c13.6,12,20.4,26.1,20.4,42.1
	C332.4,214.2,329.9,222.6,324.9,230.4z"/>
</svg>
