<?xml version="1.0" encoding="utf-8"?>
<!-- Generator: Adobe Illustrator 19.0.0, SVG Export Plug-In . SVG Version: 6.00 Build 0)  -->
<svg version="1.1" id="Layer_1" xmlns="http://www.w3.org/2000/svg" xmlns:xlink="http://www.w3.org/1999/xlink" x="0px" y="0px"
	 viewBox="0 0 512 512" style="enable-background:new 0 0 512 512;" xml:space="preserve">
<style type="text/css">
	.st0{fill:#242424;}
</style>
<path id="XMLID_1_" class="st0" d="M464,370v36.9H48V370H464z M151.3,240.3c30.1-49.4,63.5-55.7,63.5-55.7s-25.4,13.7-49,62.6
	c-22.2,46-22.4,104.3-22.4,104.3h292.3c0-106.2-72.8-193.2-165.4-201.4c6.3-4.5,10.4-11.9,10.4-20.2c0-13.7-11.1-24.8-24.8-24.8
	s-24.8,11.1-24.8,24.8c0,8.3,4.1,15.7,10.4,20.2C149,158.3,76.2,245.4,76.2,351.5h40.6C116.8,351.5,121.5,289.2,151.3,240.3z"/>
</svg>
