<?xml version="1.0" encoding="utf-8"?>
<!-- Generator: Adobe Illustrator 19.0.0, SVG Export Plug-In . SVG Version: 6.00 Build 0)  -->
<svg version="1.1" id="Layer_1" xmlns="http://www.w3.org/2000/svg" xmlns:xlink="http://www.w3.org/1999/xlink" x="0px" y="0px"
	 viewBox="0 0 512 512" style="enable-background:new 0 0 512 512;" xml:space="preserve">
<style type="text/css">
	.st0{fill:#242424;}
</style>
<path class="st0" d="M230.5,57v85.4v24.6c-6.3,10.1-23.8,17.9-45.6,19.9v9.8l8.2,248.4c0,10.4-8.4,18.8-18.8,18.8
	c-10.4,0-18.8-8.4-18.8-18.8h-0.8l8.2-248.4V187c-21.8-2-39.3-9.7-45.6-19.9v-24.6V57c0-5,4-9,9-9h3.9c5,0,9,4,9,9v85.4H163V57
	c0-5,4-9,9-9h3.9c5,0,9,4,9,9v85.4h23.6V57c0-5,4-9,9-9h3.9C226.5,48,230.5,52,230.5,57z M394.2,432.7V66.8l-0.5,5v-7.1
	c0-19.8-32-23.1-37.1-3.8l-52.2,196.7c-2.8,10.4,6.2,20.5,18.3,20.5h39l-5.5,167.2h0.4h0.4c0,10.4,8.4,18.8,18.8,18.8
	c10.4,0,18.8-8.4,18.8-18.8L394.2,432.7z"/>
</svg>
