<?xml version="1.0" encoding="utf-8"?>
<!-- Generator: Adobe Illustrator 19.0.0, SVG Export Plug-In . SVG Version: 6.00 Build 0)  -->
<svg version="1.1" id="Layer_1" xmlns="http://www.w3.org/2000/svg" xmlns:xlink="http://www.w3.org/1999/xlink" x="0px" y="0px"
	 viewBox="0 0 512 512" style="enable-background:new 0 0 512 512;" xml:space="preserve">
<style type="text/css">
	.st0{fill:#242424;}
</style>
<path id="XMLID_5_" class="st0" d="M256,48C141.1,48,48,141.1,48,256c0,114.9,93.1,208,208,208c114.9,0,208-93.1,208-208
	C464,141.1,370.9,48,256,48z M256,135.8c15.1,0,27.4,12.3,27.4,27.4s-12.3,27.4-27.4,27.4c-15.1,0-27.4-12.3-27.4-27.4
	S240.9,135.8,256,135.8z M297.5,374.8h-83.1v-15.2h18.9V234.7h-19v-15.2h19h45.4h0.1v15.2h-0.1v124.9h18.9V374.8z"/>
</svg>
