<?xml version="1.0" encoding="utf-8"?>
<!-- Generator: Adobe Illustrator 19.0.0, SVG Export Plug-In . SVG Version: 6.00 Build 0)  -->
<svg version="1.1" id="Layer_1" xmlns="http://www.w3.org/2000/svg" xmlns:xlink="http://www.w3.org/1999/xlink" x="0px" y="0px"
	 viewBox="0 0 512 512" style="enable-background:new 0 0 512 512;" xml:space="preserve">
<style type="text/css">
	.st0{fill:#242424;}
</style>
<path id="XMLID_133_" class="st0" d="M342.9,103.4H219.2V64.8h26.7c8.4-10.2,21-16.8,35.2-16.8c14.2,0,26.8,6.6,35.2,16.8h26.7
	V103.4z M427.6,79.3v334.6H134.4V79.3h70.2v36.8h152.8V79.3H427.6z M290.2,308.1h-23.1v23.1h23.1V308.1z M329.9,227.5
	c0-10.4-4.4-19.5-13.3-27.3c-8.9-7.8-20.8-11.7-35.8-11.7c-14.2,0-25.7,3.9-34.5,11.6c-8.8,7.7-13.5,17.2-14.2,28.2l24,3
	c1.7-7.7,4.7-13.5,9.2-17.3c4.5-3.8,10-5.7,16.6-5.7c6.9,0,12.3,1.8,16.4,5.4c4.1,3.6,6.1,8,6.1,13c0,3.7-1.1,7-3.4,10
	c-1.5,1.9-6,6-13.7,12.2c-7.6,6.2-12.7,11.8-15.2,16.7c-2.5,5-3.8,11.3-3.8,18.9c0,0.7,0,2.8,0.1,6.2h23.7c-0.1-7.2,0.5-12.2,1.8-15
	c1.3-2.8,4.7-6.5,10.3-11.1c10.6-8.9,17.6-15.8,20.9-21C328.3,238.7,329.9,233.2,329.9,227.5z M118.4,129.4h-34V464h293.2v-34H118.4
	V129.4z"/>
</svg>
