<?xml version="1.0" encoding="utf-8"?>
<!-- Generator: Adobe Illustrator 19.0.0, SVG Export Plug-In . SVG Version: 6.00 Build 0)  -->
<svg version="1.1" id="Layer_1" xmlns="http://www.w3.org/2000/svg" xmlns:xlink="http://www.w3.org/1999/xlink" x="0px" y="0px"
	 viewBox="0 0 512 512" style="enable-background:new 0 0 512 512;" xml:space="preserve">
<style type="text/css">
	.st0{fill:#242424;}
</style>
<g id="XMLID_152_">
	<path id="XMLID_153_" class="st0" d="M207.9,103.4c-26.8,0-53.5,10.2-73.9,30.6c-19.7,19.7-30.6,46-30.6,73.9
		c0,27.9,10.9,54.2,30.6,73.9c40.8,40.8,107.1,40.7,147.8,0c40.8-40.8,40.8-107.1,0-147.8C261.5,113.6,234.7,103.4,207.9,103.4z"/>
	<path id="XMLID_188_" class="st0" d="M375.5,322.2l-13.6,13.6l-28.6-28.6C383.1,244.4,379,152.9,321,94.8
		c-62.5-62.5-163.7-62.5-226.2,0c-62.5,62.5-62.5,163.7,0,226.2c58,58,149.5,62.1,212.3,12.2l28.6,28.6l-13.6,13.6l88.5,88.5
		l53.4-53.4L375.5,322.2z M294.8,294.8c-23.9,23.9-55.4,35.9-86.8,35.9s-62.9-12-86.8-35.9c-23.2-23.2-36-54-36-86.8
		c0-32.8,12.8-63.6,36-86.8c47.9-47.9,125.8-47.9,173.7,0C342.7,169,342.7,246.9,294.8,294.8z"/>
</g>
</svg>
