<?xml version="1.0" encoding="utf-8"?>
<!-- Generator: Adobe Illustrator 19.0.0, SVG Export Plug-In . SVG Version: 6.00 Build 0)  -->
<svg version="1.1" id="Layer_1" xmlns="http://www.w3.org/2000/svg" xmlns:xlink="http://www.w3.org/1999/xlink" x="0px" y="0px"
	 viewBox="0 0 512 512" style="enable-background:new 0 0 512 512;" xml:space="preserve">
<style type="text/css">
	.st0{fill:#242424;}
</style>
<g id="XMLID_520_">
	<path id="XMLID_530_" class="st0" d="M441.5,171.3l-4.7-4.6c-13-13-35.6-12.9-48.5,0l-6.2,6.2V92.8H131.6v320.2h250.6V279.2
		l59.3-59.3C454.9,206.5,454.9,184.7,441.5,171.3z M368.6,399.3H145.2v-293h223.4v79.1h1l-72,72l53.2,53.2l17.8-17.8V399.3z
		 M431.9,210.2l-81.2,81.2l-33.9-33.9l81.2-81.2c7.8-7.8,21.4-7.8,29.3,0l4.7,4.6C440,189,440,202.2,431.9,210.2z"/>
	<path id="XMLID_544_" class="st0" d="M295.5,269.2c-1.7-1.7-4.2-2.4-6.6-1.8c-2.3,0.6-4.2,2.5-4.8,4.8l-15.9,59.5
		c-0.6,2.3,0.1,4.8,1.8,6.6c1.3,1.3,3,2,4.8,2c0.6,0,1.2-0.1,1.8-0.2l59.5-15.9c2.4-0.6,4.2-2.5,4.8-4.8c0.6-2.3-0.1-4.8-1.8-6.6
		L295.5,269.2z M284.4,323.9l9.8-36.7l26.9,26.9L284.4,323.9z"/>
</g>
</svg>
