<?xml version="1.0" encoding="utf-8"?>
<!-- Generator: Adobe Illustrator 19.0.0, SVG Export Plug-In . SVG Version: 6.00 Build 0)  -->
<svg version="1.1" id="Layer_1" xmlns="http://www.w3.org/2000/svg" xmlns:xlink="http://www.w3.org/1999/xlink" x="0px" y="0px"
	 viewBox="-143 145 512 512" style="enable-background:new -143 145 512 512;" xml:space="preserve">
<style type="text/css">
	.st0{fill:#242424;}
</style>
<g>
	<path class="st0" d="M240,310.3v-72.5H-10.5v320H240v-72.5c38.9-10.2,67.7-45.4,67.7-87.5C307.7,355.7,278.9,320.5,240,310.3z
		 M226.4,544.2H3.1V251.4h223.3v56.3c-3.1-0.3-6.2-0.5-9.3-0.5c-8.7,0-17.1,1.2-25,3.5v-17.8H37.5v20.4h146.9
		c-14.7,5.7-27.6,15.2-37.4,27.2H37.5V361h96.9c-3.8,8.5-6.3,17.6-7.3,27.2H37.5v20.4h89.8c1.2,9.6,3.8,18.8,7.7,27.2H37.5v20.4
		h110.6c16.6,19.6,41.4,32,69,32c3.1,0,6.2-0.2,9.3-0.5V544.2z M203.4,431.2l-28.7-35.9l10.6-8.5l19.2,24L250,365l9.6,9.6
		L203.4,431.2z"/>
	<rect x="37.5" y="483.5" class="st0" width="94.9" height="20.4"/>
</g>
</svg>
