<?xml version="1.0" encoding="utf-8"?>
<!-- Generator: Adobe Illustrator 19.0.0, SVG Export Plug-In . SVG Version: 6.00 Build 0)  -->
<svg version="1.1" id="Layer_1" xmlns="http://www.w3.org/2000/svg" xmlns:xlink="http://www.w3.org/1999/xlink" x="0px" y="0px"
	 viewBox="0 0 512 512" style="enable-background:new 0 0 512 512;" xml:space="preserve">
<style type="text/css">
	.st0{fill:#242424;}
</style>
<path id="XMLID_533_" class="st0" d="M333.2,210.4c51.7-3.3,92.7-46.1,92.7-98.7c0-54.7-44.3-99-99-99c-49.2,0-89.9,35.9-97.6,83
	h-72.6v38.2h19.7v77l62.5,44.5l-62.5,44.5v12v66.5h-19.7v38.2h197.8v-38.2h-21.3v-66.5v-12l-62.5-44.5l62.5-44.5V210.4z
	 M318.3,307.5v4.3h-127v-4.3l63.5-45.2L318.3,307.5z M254.8,248.4l-63.5-45.2V119h-19.7v-8.5H228c0,0.4-0.1,0.8-0.1,1.2
	c0,48.9,35.5,89.4,82.1,97.4L254.8,248.4z M280.5,109l11.6-9.3l21,26.2l49.7-50l10.5,10.5l-61.5,61.8L280.5,109z"/>
</svg>
