<?xml version="1.0" encoding="utf-8"?>
<!-- Generator: Adobe Illustrator 19.0.0, SVG Export Plug-In . SVG Version: 6.00 Build 0)  -->
<svg version="1.1" id="Layer_1" xmlns="http://www.w3.org/2000/svg" xmlns:xlink="http://www.w3.org/1999/xlink" x="0px" y="0px"
	 viewBox="0 0 512 512" style="enable-background:new 0 0 512 512;" xml:space="preserve">
<style type="text/css">
	.st0{fill:#242424;}
</style>
<path id="XMLID_178_" class="st0" d="M427.4,288.3c3.3-19,18.5-32.7,36.6-35.3c-0.5-21.8-4.1-43.8-11.8-65.4
	c-18.1,4.1-37.6-3.5-47.3-20.5c-9.5-16.4-6.9-36.2,4.7-49.9c-14.3-15.5-30.9-28.3-48.8-38.8c-11.3,14.5-30.9,21-49.1,14.3
	c-17.7-6.4-28.5-23.2-28.5-41c-19-2.5-38.5-2.7-58,0.3c0.7,18.4-10.2,36-28.4,42.6c-18.2,6.6-37.9,0.2-49.1-14.4
	c-18.1,11-33.9,24.7-47.5,40.1c12.3,13.6,15.2,34,5.5,50.8c-9.7,16.8-28.8,24.4-46.7,20.6C52.1,211.3,48.6,232,48,253
	c18.2,2.6,33.5,16.3,36.8,35.4c3.4,19-6.3,37.2-22.5,45.8c7.8,19.9,18.3,37.9,31,53.8c15.6-9.7,36.1-9,51,3.4
	c14.8,12.4,19.1,32.5,12.2,49.5c18.2,10,37.9,17.1,58.4,21.3c5.7-17.4,21.9-30.1,41.2-30.1c19.3,0,35.5,12.6,41.2,30
	c10.1-2,20.1-4.6,30.1-8.2c9.9-3.6,19.3-8.1,28.3-13c-6.8-17-2.6-37.1,12.2-49.5c14.8-12.4,35.4-13.1,50.9-3.4
	c13-16.3,23.1-34.6,30.7-54C433.6,325.3,424.1,307.2,427.4,288.3z M256,345.1c-49.2,0-89.1-39.9-89.1-89.1s39.9-89.1,89.1-89.1
	s89.1,39.9,89.1,89.1S305.2,345.1,256,345.1z"/>
</svg>
