<?xml version="1.0" encoding="utf-8"?>
<!-- Generator: Adobe Illustrator 19.0.0, SVG Export Plug-In . SVG Version: 6.00 Build 0)  -->
<svg version="1.1" id="Layer_1" xmlns="http://www.w3.org/2000/svg" xmlns:xlink="http://www.w3.org/1999/xlink" x="0px" y="0px"
	 viewBox="0 0 512 512" style="enable-background:new 0 0 512 512;" xml:space="preserve">
<style type="text/css">
	.st0{fill:#242424;}
</style>
<path class="st0" d="M296,67.1C286.5,55.5,272.2,48,256,48s-30.5,7.5-40,19.1h-30.3V111h140.7V67.1H296z M342.8,83.6v41.8H169.2
	V83.6H89.3V464h333.3V83.6H342.8z M334.5,248.7l-64.6,121.8c-1.6,3-4.8,4.9-8.2,4.9s-6.6-1.9-8.2-4.9l-40.8-77l-41.3,77
	c-1.7,3.1-4.9,4.9-8.2,4.9c-1.5,0-3-0.4-4.4-1.1c-4.5-2.4-6.2-8-3.8-12.6l49.5-92.3c1.6-3,4.8-4.9,8.2-4.9l0,0
	c3.4,0,6.6,1.9,8.2,4.9l40.7,76.9L318.1,240l-16.3-8.7l47.1-29.5l2,55.5L334.5,248.7z"/>
</svg>
